<svg xmlns="http://www.w3.org/2000/svg" xmlns:xlink="http://www.w3.org/1999/xlink" viewBox="0 0 200 200"><defs><style>.cls-1{fill:none;}.cls-2{isolation:isolate;}.cls-3{fill:#1856e3;}.cls-4{opacity:0.17;}.cls-5{clip-path:url(#clip-path);}.cls-6{opacity:0.4;mix-blend-mode:lighten;}.cls-7{fill:#fff;}</style><clipPath id="clip-path"><ellipse class="cls-1" cx="110.43" cy="54.53" rx="58.89" ry="58.38"/></clipPath></defs><g class="cls-2"><g id="Layer_1" data-name="Layer 1"><path class="cls-3" d="M51.66,55.15c-3.86,32.34,1.76,47.42,1.76,47.42C62.35,136.93,99,164.1,99,164.1L98.92,43.93C79,61.81,51.66,55.15,51.66,55.15Z"/><path class="cls-3" d="M146.18,55.15S118.8,61.81,98.92,43.93L98.85,164.1s36.64-27.17,45.57-61.53C144.42,102.57,150,87.49,146.18,55.15Z"/><g class="cls-4"><g class="cls-5"><g class="cls-6"><path class="cls-7" d="M51.69,55.15c-3.85,32.34,1.77,47.42,1.77,47.42C62.39,136.93,99,164.1,99,164.1L99,43.93C79.07,61.81,51.69,55.15,51.69,55.15Z"/><path class="cls-7" d="M146.22,55.15S118.84,61.81,99,43.93L98.88,164.1s36.64-27.17,45.57-61.53C144.45,102.57,150.07,87.49,146.22,55.15Z"/></g></g></g><path class="cls-7" d="M102.08,90.83a5.6,5.6,0,1,0-6.69-.13l-4.26,18.24s15.86.14,15.72,0S102.9,94,102.08,90.83Z"/><rect class="cls-7" x="76.06" y="119.22" width="45.79" height="10.81" rx="0.83"/><circle cx="81.72" cy="124.62" r="1.55"/><circle cx="90.33" cy="124.62" r="1.55"/><circle cx="98.95" cy="124.62" r="1.55"/><circle cx="107.57" cy="124.62" r="1.55"/><circle cx="116.19" cy="124.62" r="1.55"/></g></g></svg>